<svg width="89" height="31" viewBox="0 0 89 31" fill="none" xmlns="http://www.w3.org/2000/svg">
<rect width="89" height="31" fill="#002962"/>
<rect width="35" height="17" transform="translate(10 8)" fill="#FF0000"/>
<path d="M14.8807 21V12.2727H17.5227V13.875H17.6193C17.8011 13.3447 18.108 12.9261 18.5398 12.6193C18.9716 12.3125 19.4867 12.1591 20.0852 12.1591C20.6913 12.1591 21.2102 12.3144 21.642 12.625C22.0739 12.9356 22.3485 13.3523 22.4659 13.875H22.5568C22.7197 13.3561 23.0379 12.9413 23.5114 12.6307C23.9848 12.3163 24.5436 12.1591 25.1875 12.1591C26.0133 12.1591 26.6837 12.4242 27.1989 12.9545C27.714 13.4811 27.9716 14.2045 27.9716 15.125V21H25.1932V15.7614C25.1932 15.3258 25.0814 14.9943 24.858 14.767C24.6345 14.536 24.3447 14.4205 23.9886 14.4205C23.6061 14.4205 23.3049 14.5455 23.0852 14.7955C22.8693 15.0417 22.7614 15.3731 22.7614 15.7898V21H20.0909V15.733C20.0909 15.3277 19.9811 15.0076 19.7614 14.7727C19.5417 14.5379 19.2519 14.4205 18.892 14.4205C18.6496 14.4205 18.4356 14.4792 18.25 14.5966C18.0644 14.7102 17.9186 14.8731 17.8125 15.0852C17.7102 15.2973 17.6591 15.5473 17.6591 15.8352V21H14.8807ZM29.6932 21V12.2727H32.4716V21H29.6932ZM31.0852 11.2557C30.6951 11.2557 30.3598 11.1269 30.0795 10.8693C29.7992 10.608 29.6591 10.2936 29.6591 9.92614C29.6591 9.5625 29.7992 9.25189 30.0795 8.99432C30.3598 8.73295 30.6951 8.60227 31.0852 8.60227C31.4792 8.60227 31.8144 8.73295 32.0909 8.99432C32.3712 9.25189 32.5114 9.5625 32.5114 9.92614C32.5114 10.2936 32.3712 10.608 32.0909 10.8693C31.8144 11.1269 31.4792 11.2557 31.0852 11.2557ZM34.2401 21V12.2727H36.9389V13.8636H37.0298C37.1889 13.2879 37.4484 12.8598 37.8082 12.5795C38.1681 12.2955 38.5866 12.1534 39.0639 12.1534C39.1927 12.1534 39.3253 12.1629 39.4616 12.1818C39.598 12.197 39.7249 12.2216 39.8423 12.2557V14.6705C39.7098 14.625 39.5355 14.589 39.3196 14.5625C39.1075 14.536 38.9181 14.5227 38.7514 14.5227C38.4219 14.5227 38.1245 14.5966 37.8594 14.7443C37.598 14.8883 37.3916 15.0909 37.2401 15.3523C37.0923 15.6098 37.0185 15.9129 37.0185 16.2614V21H34.2401ZM44.5952 21.1648C43.6785 21.1648 42.8906 20.9773 42.2315 20.6023C41.5762 20.2235 41.0705 19.697 40.7145 19.0227C40.3622 18.3447 40.1861 17.5587 40.1861 16.6648C40.1861 15.767 40.3622 14.9811 40.7145 14.3068C41.0705 13.6288 41.5762 13.1023 42.2315 12.7273C42.8906 12.3485 43.6785 12.1591 44.5952 12.1591C45.5118 12.1591 46.2978 12.3485 46.9531 12.7273C47.6122 13.1023 48.1179 13.6288 48.4702 14.3068C48.8262 14.9811 49.0043 15.767 49.0043 16.6648C49.0043 17.5587 48.8262 18.3447 48.4702 19.0227C48.1179 19.697 47.6122 20.2235 46.9531 20.6023C46.2978 20.9773 45.5118 21.1648 44.5952 21.1648ZM44.6122 19.0682C44.9455 19.0682 45.2277 18.9659 45.4588 18.7614C45.6899 18.5568 45.866 18.2727 45.9872 17.9091C46.1122 17.5455 46.1747 17.125 46.1747 16.6477C46.1747 16.1629 46.1122 15.7386 45.9872 15.375C45.866 15.0114 45.6899 14.7273 45.4588 14.5227C45.2277 14.3182 44.9455 14.2159 44.6122 14.2159C44.2675 14.2159 43.9759 14.3182 43.7372 14.5227C43.5024 14.7273 43.3224 15.0114 43.1974 15.375C43.0762 15.7386 43.0156 16.1629 43.0156 16.6477C43.0156 17.125 43.0762 17.5455 43.1974 17.9091C43.3224 18.2727 43.5024 18.5568 43.7372 18.7614C43.9759 18.9659 44.2675 19.0682 44.6122 19.0682ZM50.4276 21V12.2727H53.1264V13.8636H53.2173C53.3764 13.2879 53.6359 12.8598 53.9957 12.5795C54.3556 12.2955 54.7741 12.1534 55.2514 12.1534C55.3802 12.1534 55.5128 12.1629 55.6491 12.1818C55.7855 12.197 55.9124 12.2216 56.0298 12.2557V14.6705C55.8973 14.625 55.723 14.589 55.5071 14.5625C55.295 14.536 55.1056 14.5227 54.9389 14.5227C54.6094 14.5227 54.312 14.5966 54.0469 14.7443C53.7855 14.8883 53.5791 15.0909 53.4276 15.3523C53.2798 15.6098 53.206 15.9129 53.206 16.2614V21H50.4276ZM57.1619 21V12.2727H59.9403V21H57.1619ZM58.554 11.2557C58.1638 11.2557 57.8286 11.1269 57.5483 10.8693C57.268 10.608 57.1278 10.2936 57.1278 9.92614C57.1278 9.5625 57.268 9.25189 57.5483 8.99432C57.8286 8.73295 58.1638 8.60227 58.554 8.60227C58.9479 8.60227 59.2831 8.73295 59.5597 8.99432C59.84 9.25189 59.9801 9.5625 59.9801 9.92614C59.9801 10.2936 59.84 10.608 59.5597 10.8693C59.2831 11.1269 58.9479 11.2557 58.554 11.2557ZM61.7088 21V12.2727H64.3509V13.875H64.4474C64.6293 13.3447 64.9361 12.9261 65.3679 12.6193C65.7997 12.3125 66.3149 12.1591 66.9134 12.1591C67.5194 12.1591 68.0384 12.3144 68.4702 12.625C68.902 12.9356 69.1766 13.3523 69.294 13.875H69.3849C69.5478 13.3561 69.866 12.9413 70.3395 12.6307C70.813 12.3163 71.3717 12.1591 72.0156 12.1591C72.8414 12.1591 73.5118 12.4242 74.027 12.9545C74.5421 13.4811 74.7997 14.2045 74.7997 15.125V21H72.0213V15.7614C72.0213 15.3258 71.9096 14.9943 71.6861 14.767C71.4626 14.536 71.1728 14.4205 70.8168 14.4205C70.4342 14.4205 70.133 14.5455 69.9134 14.7955C69.6974 15.0417 69.5895 15.3731 69.5895 15.7898V21H66.919V15.733C66.919 15.3277 66.8092 15.0076 66.5895 14.7727C66.3698 14.5379 66.08 14.4205 65.7202 14.4205C65.4777 14.4205 65.2637 14.4792 65.0781 14.5966C64.8925 14.7102 64.7467 14.8731 64.6406 15.0852C64.5384 15.2973 64.4872 15.5473 64.4872 15.8352V21H61.7088Z" fill="white"/>
<path d="M57.7045 21.0909V24H57.3523V21.0909H57.7045ZM58.6606 22.6875V24H58.3254V21.8182H58.6493V22.1591H58.6777C58.7288 22.0483 58.8065 21.9593 58.9106 21.892C59.0148 21.8239 59.1493 21.7898 59.314 21.7898C59.4618 21.7898 59.591 21.8201 59.7018 21.8807C59.8126 21.9403 59.8988 22.0312 59.9604 22.1534C60.0219 22.2746 60.0527 22.428 60.0527 22.6136V24H59.7175V22.6364C59.7175 22.465 59.6729 22.3314 59.5839 22.2358C59.4949 22.1392 59.3728 22.0909 59.2175 22.0909C59.1104 22.0909 59.0148 22.1141 58.9305 22.1605C58.8472 22.2069 58.7814 22.2746 58.7331 22.3636C58.6848 22.4527 58.6606 22.5606 58.6606 22.6875ZM61.4491 24.0455C61.2673 24.0455 61.1068 23.9995 60.9676 23.9077C60.8284 23.8149 60.7195 23.6842 60.6409 23.5156C60.5623 23.3461 60.523 23.1458 60.523 22.9148C60.523 22.6856 60.5623 22.4867 60.6409 22.3182C60.7195 22.1496 60.8289 22.0194 60.969 21.9276C61.1092 21.8357 61.2711 21.7898 61.4548 21.7898C61.5968 21.7898 61.7091 21.8134 61.7914 21.8608C61.8748 21.9072 61.9382 21.9602 61.9818 22.0199C62.0263 22.0786 62.0609 22.1269 62.0855 22.1648H62.1139V21.0909H62.4491V24H62.1253V23.6648H62.0855C62.0609 23.7045 62.0258 23.7547 61.9804 23.8153C61.9349 23.875 61.87 23.9285 61.7858 23.9759C61.7015 24.0223 61.5893 24.0455 61.4491 24.0455ZM61.4946 23.7443C61.629 23.7443 61.7427 23.7093 61.8355 23.6392C61.9283 23.5682 61.9988 23.4702 62.0471 23.3452C62.0954 23.2192 62.1196 23.0739 62.1196 22.9091C62.1196 22.7462 62.0959 22.6037 62.0486 22.4815C62.0012 22.3584 61.9311 22.2628 61.8383 22.1946C61.7455 22.1255 61.6309 22.0909 61.4946 22.0909C61.3525 22.0909 61.2342 22.1274 61.1395 22.2003C61.0457 22.2723 60.9752 22.3703 60.9278 22.4943C60.8814 22.6174 60.8582 22.7557 60.8582 22.9091C60.8582 23.0644 60.8819 23.2055 60.9292 23.3324C60.9775 23.4583 61.0486 23.5587 61.1423 23.6335C61.237 23.7074 61.3544 23.7443 61.4946 23.7443ZM63.956 24.0455C63.759 24.0455 63.5862 23.9986 63.4375 23.9048C63.2898 23.8111 63.1743 23.6799 63.0909 23.5114C63.0086 23.3428 62.9674 23.1458 62.9674 22.9205C62.9674 22.6932 63.0086 22.4948 63.0909 22.3253C63.1743 22.1558 63.2898 22.0241 63.4375 21.9304C63.5862 21.8366 63.759 21.7898 63.956 21.7898C64.153 21.7898 64.3253 21.8366 64.473 21.9304C64.6217 22.0241 64.7372 22.1558 64.8196 22.3253C64.903 22.4948 64.9446 22.6932 64.9446 22.9205C64.9446 23.1458 64.903 23.3428 64.8196 23.5114C64.7372 23.6799 64.6217 23.8111 64.473 23.9048C64.3253 23.9986 64.153 24.0455 63.956 24.0455ZM63.956 23.7443C64.1056 23.7443 64.2287 23.706 64.3253 23.6293C64.4219 23.5526 64.4934 23.4517 64.5398 23.3267C64.5862 23.2017 64.6094 23.0663 64.6094 22.9205C64.6094 22.7746 64.5862 22.6387 64.5398 22.5128C64.4934 22.3868 64.4219 22.285 64.3253 22.2074C64.2287 22.1297 64.1056 22.0909 63.956 22.0909C63.8064 22.0909 63.6833 22.1297 63.5867 22.2074C63.4901 22.285 63.4186 22.3868 63.3722 22.5128C63.3258 22.6387 63.3026 22.7746 63.3026 22.9205C63.3026 23.0663 63.3258 23.2017 63.3722 23.3267C63.4186 23.4517 63.4901 23.5526 63.5867 23.6293C63.6833 23.706 63.8064 23.7443 63.956 23.7443ZM65.7516 22.6875V24H65.4163V21.8182H65.7402V22.1591H65.7686C65.8198 22.0483 65.8974 21.9593 66.0016 21.892C66.1057 21.8239 66.2402 21.7898 66.405 21.7898C66.5527 21.7898 66.682 21.8201 66.7928 21.8807C66.9036 21.9403 66.9897 22.0312 67.0513 22.1534C67.1128 22.2746 67.1436 22.428 67.1436 22.6136V24H66.8084V22.6364C66.8084 22.465 66.7639 22.3314 66.6749 22.2358C66.5859 22.1392 66.4637 22.0909 66.3084 22.0909C66.2014 22.0909 66.1057 22.1141 66.0215 22.1605C65.9381 22.2069 65.8723 22.2746 65.824 22.3636C65.7757 22.4527 65.7516 22.5606 65.7516 22.6875ZM68.631 24.0455C68.4207 24.0455 68.2394 23.9991 68.0869 23.9062C67.9354 23.8125 67.8185 23.6818 67.7361 23.5142C67.6546 23.3456 67.6139 23.1496 67.6139 22.9261C67.6139 22.7027 67.6546 22.5057 67.7361 22.3352C67.8185 22.1638 67.933 22.0303 68.0798 21.9347C68.2276 21.8381 68.3999 21.7898 68.5969 21.7898C68.7105 21.7898 68.8227 21.8087 68.9335 21.8466C69.0443 21.8845 69.1452 21.946 69.2361 22.0312C69.327 22.1155 69.3994 22.2273 69.4534 22.3665C69.5074 22.5057 69.5344 22.6771 69.5344 22.8807V23.0227H67.8526V22.733H69.1935C69.1935 22.6098 69.1688 22.5 69.1196 22.4034C69.0713 22.3068 69.0022 22.2306 68.9122 22.1747C68.8232 22.1188 68.7181 22.0909 68.5969 22.0909C68.4634 22.0909 68.3478 22.1241 68.2503 22.1903C68.1537 22.2557 68.0794 22.3409 68.0273 22.446C67.9752 22.5511 67.9491 22.6638 67.9491 22.7841V22.9773C67.9491 23.142 67.9776 23.2817 68.0344 23.3963C68.0921 23.5099 68.1722 23.5966 68.2744 23.6562C68.3767 23.715 68.4955 23.7443 68.631 23.7443C68.719 23.7443 68.7986 23.732 68.8696 23.7074C68.9416 23.6818 69.0036 23.6439 69.0557 23.5938C69.1078 23.5426 69.148 23.4792 69.1764 23.4034L69.5003 23.4943C69.4662 23.6042 69.4089 23.7008 69.3284 23.7841C69.2479 23.8665 69.1485 23.9309 69.0301 23.9773C68.9117 24.0227 68.7787 24.0455 68.631 24.0455ZM71.5498 22.3068L71.2486 22.392C71.2297 22.3419 71.2018 22.2931 71.1648 22.2457C71.1288 22.1974 71.0796 22.1577 71.0171 22.1264C70.9546 22.0952 70.8746 22.0795 70.777 22.0795C70.6435 22.0795 70.5323 22.1103 70.4432 22.1719C70.3552 22.2325 70.3111 22.3097 70.3111 22.4034C70.3111 22.4867 70.3414 22.5526 70.402 22.6009C70.4627 22.6491 70.5573 22.6894 70.6861 22.7216L71.01 22.8011C71.2051 22.8485 71.3504 22.9209 71.4461 23.0185C71.5417 23.1151 71.5895 23.2396 71.5895 23.392C71.5895 23.517 71.5536 23.6288 71.4816 23.7273C71.4106 23.8258 71.3111 23.9034 71.1833 23.9602C71.0555 24.017 70.9068 24.0455 70.7373 24.0455C70.5147 24.0455 70.3305 23.9972 70.1847 23.9006C70.0389 23.804 69.9466 23.6629 69.9077 23.4773L70.2259 23.3977C70.2562 23.5152 70.3135 23.6032 70.3978 23.6619C70.483 23.7206 70.5943 23.75 70.7316 23.75C70.8878 23.75 71.0119 23.7169 71.1038 23.6506C71.1966 23.5833 71.243 23.5028 71.243 23.4091C71.243 23.3333 71.2164 23.2699 71.1634 23.2188C71.1104 23.1667 71.0289 23.1278 70.9191 23.1023L70.5555 23.017C70.3556 22.9697 70.2089 22.8963 70.1151 22.7969C70.0223 22.6965 69.9759 22.571 69.9759 22.4205C69.9759 22.2973 70.0105 22.1884 70.0796 22.0938C70.1497 21.9991 70.2448 21.9247 70.3651 21.8707C70.4863 21.8168 70.6236 21.7898 70.777 21.7898C70.993 21.7898 71.1625 21.8371 71.2856 21.9318C71.4096 22.0265 71.4977 22.1515 71.5498 22.3068ZM72.0542 24V21.8182H72.3894V24H72.0542ZM72.2246 21.4545C72.1593 21.4545 72.1029 21.4323 72.0556 21.3878C72.0092 21.3433 71.986 21.2898 71.986 21.2273C71.986 21.1648 72.0092 21.1113 72.0556 21.0668C72.1029 21.0223 72.1593 21 72.2246 21C72.29 21 72.3458 21.0223 72.3922 21.0668C72.4396 21.1113 72.4633 21.1648 72.4633 21.2273C72.4633 21.2898 72.4396 21.3433 72.3922 21.3878C72.3458 21.4323 72.29 21.4545 72.2246 21.4545ZM73.6054 24.0511C73.4672 24.0511 73.3417 24.0251 73.229 23.973C73.1163 23.92 73.0268 23.8438 72.9605 23.7443C72.8943 23.6439 72.8611 23.5227 72.8611 23.3807C72.8611 23.2557 72.8857 23.1544 72.935 23.0767C72.9842 22.9981 73.05 22.9366 73.1324 22.892C73.2148 22.8475 73.3057 22.8144 73.4051 22.7926C73.5055 22.7699 73.6064 22.7519 73.7077 22.7386C73.8403 22.7216 73.9478 22.7088 74.0301 22.7003C74.1135 22.6908 74.1741 22.6752 74.212 22.6534C74.2508 22.6316 74.2702 22.5937 74.2702 22.5398V22.5284C74.2702 22.3883 74.2318 22.2794 74.1551 22.2017C74.0794 22.1241 73.9643 22.0852 73.81 22.0852C73.6499 22.0852 73.5245 22.1203 73.4336 22.1903C73.3426 22.2604 73.2787 22.3352 73.2418 22.4148L72.9236 22.3011C72.9804 22.1686 73.0562 22.0653 73.1509 21.9915C73.2465 21.9167 73.3507 21.8646 73.4634 21.8352C73.577 21.8049 73.6888 21.7898 73.7986 21.7898C73.8687 21.7898 73.9492 21.7983 74.0401 21.8153C74.1319 21.8314 74.2205 21.8651 74.3057 21.9162C74.3919 21.9673 74.4634 22.0445 74.5202 22.1477C74.577 22.2509 74.6054 22.3892 74.6054 22.5625V24H74.2702V23.7045H74.2532C74.2304 23.7519 74.1925 23.8026 74.1395 23.8565C74.0865 23.9105 74.0159 23.9564 73.9279 23.9943C73.8398 24.0322 73.7323 24.0511 73.6054 24.0511ZM73.6566 23.75C73.7891 23.75 73.9009 23.724 73.9918 23.6719C74.0836 23.6198 74.1528 23.5526 74.1992 23.4702C74.2465 23.3878 74.2702 23.3011 74.2702 23.2102V22.9034C74.256 22.9205 74.2247 22.9361 74.1764 22.9503C74.1291 22.9635 74.0742 22.9754 74.0117 22.9858C73.9501 22.9953 73.89 23.0038 73.8313 23.0114C73.7735 23.018 73.7266 23.0237 73.6907 23.0284C73.6035 23.0398 73.5221 23.0582 73.4463 23.0838C73.3715 23.1084 73.3109 23.1458 73.2645 23.196C73.2191 23.2453 73.1963 23.3125 73.1963 23.3977C73.1963 23.5142 73.2394 23.6023 73.3256 23.6619C73.4127 23.7206 73.523 23.75 73.6566 23.75Z" fill="white"/>
</svg>
