<svg width="35" height="35" viewBox="0 0 35 35" fill="none" xmlns="http://www.w3.org/2000/svg">
<path d="M3.17188 14.7285C3.80382 11.3257 5.45052 8.50629 8.11198 6.27018C10.7734 4.03407 13.9028 2.91602 17.5 2.91602C19.2986 2.91602 20.9939 3.20768 22.5859 3.79102C24.178 4.37435 25.6059 5.20074 26.8698 6.27018C26.5295 6.90213 26.2561 7.44293 26.0495 7.89258C25.8429 8.34223 25.7031 8.7615 25.6302 9.15039C24.5608 8.12956 23.3333 7.3214 21.9479 6.72591C20.5625 6.13043 19.0799 5.83268 17.5 5.83268C15.0451 5.83268 12.8455 6.51931 10.901 7.89258C8.9566 9.26584 7.54688 11.0219 6.67188 13.1608C6.01563 13.1365 5.3776 13.258 4.75781 13.5254C4.13802 13.7928 3.60938 14.1938 3.17188 14.7285ZM17.5 32.0827C13.9028 32.0827 10.7734 30.9646 8.11198 28.7285C5.45052 26.4924 3.80382 23.673 3.17188 20.2702C3.58507 20.8049 4.10156 21.212 4.72135 21.4915C5.34115 21.7711 5.99132 21.8987 6.67188 21.8743C7.54688 24.0132 8.9566 25.7632 10.901 27.1244C12.8455 28.4855 15.0451 29.166 17.5 29.166C20.7326 29.166 23.4852 28.0297 25.7578 25.7572C28.0304 23.4846 29.1667 20.732 29.1667 17.4993C29.1667 17.0862 29.1484 16.673 29.112 16.2598C29.0755 15.8466 29.0087 15.4334 28.9115 15.0202C29.1788 15.1174 29.4523 15.1903 29.7318 15.2389C30.0113 15.2875 30.309 15.3118 30.625 15.3118C30.8438 15.3118 31.0625 15.2997 31.2813 15.2754C31.5 15.2511 31.7066 15.2146 31.901 15.166C31.9497 15.5549 31.9922 15.9377 32.0286 16.3145C32.0651 16.6912 32.0833 17.0862 32.0833 17.4993C32.0833 19.5167 31.7005 21.4125 30.9349 23.1868C30.1693 24.9612 29.1302 26.5046 27.8177 27.8171C26.5052 29.1296 24.9618 30.1686 23.1875 30.9342C21.4132 31.6999 19.5174 32.0827 17.5 32.0827ZM12.25 16.916L15.3125 13.8535L12.2135 10.7546L10.6823 12.2858L12.25 13.8171L10.6823 15.3848L12.25 16.916ZM30.625 13.1243C29.8229 13.1243 29.1363 12.8388 28.5651 12.2676C27.9939 11.6964 27.7083 11.0098 27.7083 10.2077C27.7083 9.55143 27.8906 8.85265 28.2552 8.11133C28.6198 7.37001 29.4097 6.12435 30.625 4.37435C31.8403 6.12435 32.6302 7.37001 32.9948 8.11133C33.3594 8.85265 33.5417 9.55143 33.5417 10.2077C33.5417 11.0098 33.2561 11.6964 32.6849 12.2676C32.1137 12.8388 31.4271 13.1243 30.625 13.1243ZM22.7865 16.9525L24.3542 15.3848L22.7865 13.8171L24.3177 12.2858L22.7865 10.7546L19.6875 13.8535L22.7865 16.9525ZM17.5 19.6868C16.8681 19.6868 16.2543 19.7598 15.6589 19.9056C15.0634 20.0514 14.4983 20.258 13.9635 20.5254L8.75 17.4993C8.75 17.1105 8.65278 16.7459 8.45833 16.4056C8.26389 16.0653 7.99653 15.798 7.65625 15.6035C7.12153 15.3118 6.56858 15.245 5.9974 15.403C5.42622 15.561 4.98264 15.8952 4.66667 16.4056C4.375 16.9403 4.30816 17.4933 4.46615 18.0645C4.62413 18.6356 4.95833 19.0792 5.46875 19.3952C5.80903 19.5896 6.17361 19.6868 6.5625 19.6868C6.95139 19.6868 7.31597 19.5896 7.65625 19.3952L11.9948 21.9108C11.5816 22.324 11.2109 22.7676 10.8828 23.2415C10.5547 23.7155 10.2813 24.232 10.0625 24.791H12.4688C12.9792 23.916 13.6719 23.2112 14.5469 22.6764C15.4219 22.1417 16.4063 21.8743 17.5 21.8743C18.5938 21.8743 19.5781 22.1417 20.4531 22.6764C21.3281 23.2112 22.0208 23.916 22.5313 24.791H24.9375C24.3542 23.2841 23.4002 22.0566 22.0755 21.1087C20.7509 20.1608 19.2257 19.6868 17.5 19.6868Z" fill="#022B61"/>
</svg>
