<svg width="18" height="18" viewBox="0 0 18 18" fill="none" xmlns="http://www.w3.org/2000/svg">
<g clip-path="url(#clip0_2563_2002)">
<path d="M16.875 6.75L13.5 6.75L13.5 1.125L16.875 1.125V6.75ZM18 1.125C18 0.826631 17.8815 0.540483 17.6705 0.329505C17.4595 0.118526 17.1734 0 16.875 0L13.5 0C13.2016 0 12.9155 0.118526 12.7045 0.329505C12.4935 0.540483 12.375 0.826631 12.375 1.125L12.375 6.75C12.375 7.04837 12.4935 7.33452 12.7045 7.5455C12.9155 7.75647 13.2016 7.875 13.5 7.875L16.875 7.875C17.1734 7.875 17.4595 7.75647 17.6705 7.5455C17.8815 7.33452 18 7.04837 18 6.75V1.125ZM4.5 16.875H1.125V11.25H4.5L4.5 16.875ZM5.625 11.25C5.625 10.9516 5.50647 10.6655 5.2955 10.4545C5.08452 10.2435 4.79837 10.125 4.5 10.125H1.125C0.826632 10.125 0.540483 10.2435 0.329506 10.4545C0.118526 10.6655 0 10.9516 0 11.25V16.875C0 17.1734 0.118526 17.4595 0.329506 17.6705C0.540483 17.8815 0.826632 18 1.125 18H4.5C4.79837 18 5.08452 17.8815 5.2955 17.6705C5.50647 17.4595 5.625 17.1734 5.625 16.875L5.625 11.25ZM9 6.75L1.125 6.75V1.125L9 1.125L9 6.75ZM10.125 1.125C10.125 0.826631 10.0065 0.540483 9.7955 0.329505C9.58452 0.118526 9.29837 0 9 0L1.125 0C0.826632 0 0.540483 0.118526 0.329506 0.329505C0.118526 0.540483 0 0.826631 0 1.125V6.75C0 7.04837 0.118526 7.33452 0.329506 7.5455C0.540483 7.75647 0.826632 7.875 1.125 7.875L9 7.875C9.29837 7.875 9.58452 7.75647 9.7955 7.5455C10.0065 7.33452 10.125 7.04837 10.125 6.75L10.125 1.125ZM16.875 16.875L9 16.875L9 11.25L16.875 11.25V16.875ZM18 11.25C18 10.9516 17.8815 10.6655 17.6705 10.4545C17.4595 10.2435 17.1734 10.125 16.875 10.125L9 10.125C8.70163 10.125 8.41548 10.2435 8.2045 10.4545C7.99353 10.6655 7.875 10.9516 7.875 11.25L7.875 16.875C7.875 17.1734 7.99353 17.4595 8.2045 17.6705C8.41548 17.8815 8.70163 18 9 18L16.875 18C17.1734 18 17.4595 17.8815 17.6705 17.6705C17.8815 17.4595 18 17.1734 18 16.875V11.25Z" fill="#002962"/>
</g>
<defs>
<clipPath id="clip0_2563_2002">
<rect width="18" height="18" fill="white" transform="matrix(0 1 -1 0 18 0)"/>
</clipPath>
</defs>
</svg>
