<svg width="20" height="20" viewBox="0 0 20 20" fill="none" xmlns="http://www.w3.org/2000/svg">
<path d="M11.4425 1.43166C11.3844 1.37346 11.3155 1.32728 11.2395 1.29577C11.1636 1.26427 11.0822 1.24805 11 1.24805C10.9178 1.24805 10.8364 1.26427 10.7605 1.29577C10.6845 1.32728 10.6156 1.37346 10.5575 1.43166L3.0575 8.93166C2.9995 8.98981 2.95353 9.05882 2.92221 9.13475C2.8909 9.21068 2.87485 9.29203 2.875 9.37416V18.1242C2.875 18.2899 2.94085 18.4489 3.05806 18.5661C3.17527 18.6833 3.33424 18.7492 3.5 18.7492H9.125C9.29076 18.7492 9.44973 18.6833 9.56694 18.5661C9.68415 18.4489 9.75 18.2899 9.75 18.1242V13.1242H12.25V18.1242C12.25 18.2899 12.3158 18.4489 12.4331 18.5661C12.5503 18.6833 12.7092 18.7492 12.875 18.7492H18.5C18.6658 18.7492 18.8247 18.6833 18.9419 18.5661C19.0592 18.4489 19.125 18.2899 19.125 18.1242V9.37416C19.1251 9.29203 19.1091 9.21068 19.0778 9.13475C19.0465 9.05882 19.0005 8.98981 18.9425 8.93166L17.25 7.24041V3.12416C17.25 2.9584 17.1842 2.79943 17.0669 2.68222C16.9497 2.56501 16.7908 2.49916 16.625 2.49916H15.375C15.2092 2.49916 15.0503 2.56501 14.9331 2.68222C14.8158 2.79943 14.75 2.9584 14.75 3.12416V4.74041L11.4425 1.43166ZM4.125 17.4992V9.63291L11 2.75791L17.875 9.63291V17.4992H13.5V12.4992C13.5 12.3334 13.4342 12.1744 13.3169 12.0572C13.1997 11.94 13.0408 11.8742 12.875 11.8742H9.125C8.95924 11.8742 8.80027 11.94 8.68306 12.0572C8.56585 12.1744 8.5 12.3334 8.5 12.4992V17.4992H4.125Z" fill="#002962"/>
</svg>
