<svg width="20" height="20" viewBox="0 0 20 20" fill="none" xmlns="http://www.w3.org/2000/svg">
<g clip-path="url(#clip0_2563_2004)">
<path d="M11.6163 0H5C4.33696 0 3.70107 0.263392 3.23223 0.732233C2.76339 1.20107 2.5 1.83696 2.5 2.5V17.5C2.5 18.163 2.76339 18.7989 3.23223 19.2678C3.70107 19.7366 4.33696 20 5 20H15C15.663 20 16.2989 19.7366 16.7678 19.2678C17.2366 18.7989 17.5 18.163 17.5 17.5V5.88375C17.4999 5.55226 17.3682 5.23437 17.1337 5L12.5 0.36625C12.2656 0.131813 11.9477 7.07968e-05 11.6163 0ZM11.875 4.375V1.875L15.625 5.625H13.125C12.7935 5.625 12.4755 5.4933 12.2411 5.25888C12.0067 5.02446 11.875 4.70652 11.875 4.375ZM12.5 16.875V9.375C12.5 9.20924 12.5658 9.05027 12.6831 8.93306C12.8003 8.81585 12.9592 8.75 13.125 8.75H14.375C14.5408 8.75 14.6997 8.81585 14.8169 8.93306C14.9342 9.05027 15 9.20924 15 9.375V16.875C15 17.0408 14.9342 17.1997 14.8169 17.3169C14.6997 17.4342 14.5408 17.5 14.375 17.5H13.125C12.9592 17.5 12.8003 17.4342 12.6831 17.3169C12.5658 17.1997 12.5 17.0408 12.5 16.875ZM9.375 17.5C9.20924 17.5 9.05027 17.4342 8.93306 17.3169C8.81585 17.1997 8.75 17.0408 8.75 16.875V11.875C8.75 11.7092 8.81585 11.5503 8.93306 11.4331C9.05027 11.3158 9.20924 11.25 9.375 11.25H10.625C10.7908 11.25 10.9497 11.3158 11.0669 11.4331C11.1842 11.5503 11.25 11.7092 11.25 11.875V16.875C11.25 17.0408 11.1842 17.1997 11.0669 17.3169C10.9497 17.4342 10.7908 17.5 10.625 17.5H9.375ZM5.625 17.5C5.45924 17.5 5.30027 17.4342 5.18306 17.3169C5.06585 17.1997 5 17.0408 5 16.875V14.375C5 14.2092 5.06585 14.0503 5.18306 13.9331C5.30027 13.8158 5.45924 13.75 5.625 13.75H6.875C7.04076 13.75 7.19973 13.8158 7.31694 13.9331C7.43415 14.0503 7.5 14.2092 7.5 14.375V16.875C7.5 17.0408 7.43415 17.1997 7.31694 17.3169C7.19973 17.4342 7.04076 17.5 6.875 17.5H5.625Z" fill="#002962"/>
</g>
<defs>
<clipPath id="clip0_2563_2004">
<rect width="20" height="20" fill="white"/>
</clipPath>
</defs>
</svg>
