<svg width="40" height="40" viewBox="0 0 40 40" fill="none" xmlns="http://www.w3.org/2000/svg">
<path d="M19.9758 16.8095V12.381H15.4831V9.42857H19.9758V5H22.971V9.42857H27.4638V12.381H22.971V16.8095H19.9758ZM13.9855 36C13.1618 36 12.4567 35.7109 11.8702 35.1327C11.2836 34.5546 10.9903 33.8595 10.9903 33.0476C10.9903 32.2357 11.2836 31.5407 11.8702 30.9625C12.4567 30.3843 13.1618 30.0952 13.9855 30.0952C14.8092 30.0952 15.5143 30.3843 16.1008 30.9625C16.6874 31.5407 16.9807 32.2357 16.9807 33.0476C16.9807 33.8595 16.6874 34.5546 16.1008 35.1327C15.5143 35.7109 14.8092 36 13.9855 36ZM28.9614 36C28.1377 36 27.4326 35.7109 26.846 35.1327C26.2595 34.5546 25.9662 33.8595 25.9662 33.0476C25.9662 32.2357 26.2595 31.5407 26.846 30.9625C27.4326 30.3843 28.1377 30.0952 28.9614 30.0952C29.785 30.0952 30.4901 30.3843 31.0767 30.9625C31.6632 31.5407 31.9565 32.2357 31.9565 33.0476C31.9565 33.8595 31.6632 34.5546 31.0767 35.1327C30.4901 35.7109 29.785 36 28.9614 36ZM5 9.42857V6.47619H9.90459L16.2693 19.7619H26.7524L32.593 9.42857H36L29.4106 21.1643C29.1361 21.6563 28.7679 22.0377 28.3062 22.3083C27.8444 22.579 27.339 22.7143 26.7899 22.7143H15.6329L13.9855 25.6667H31.9565V28.619H13.9855C12.8623 28.619 12.0074 28.1393 11.4209 27.1798C10.8343 26.2202 10.8156 25.2484 11.3647 24.2643L13.3865 20.6476L7.99517 9.42857H5Z" fill="#022B61"/>
</svg>
