<svg width="45" height="45" viewBox="0 0 45 45" fill="none" xmlns="http://www.w3.org/2000/svg">
<mask id="mask0_1986_1300" style="mask-type:alpha" maskUnits="userSpaceOnUse" x="0" y="0" width="45" height="45">
<rect width="45" height="45" fill="#022B61"/>
</mask>
<g mask="url(#mask0_1986_1300)">
<path d="M9.375 15H25.2188H24.375H25.0312H9.375ZM10.125 11.25H34.875L33.2812 9.375H11.7188L10.125 11.25ZM18.75 23.9062L22.5 22.0312L26.25 23.9062V15H18.75V23.9062ZM27.2812 39.375H9.375C8.34375 39.375 7.46094 39.0078 6.72656 38.2734C5.99219 37.5391 5.625 36.6562 5.625 35.625V12.2344C5.625 11.7969 5.69531 11.375 5.83594 10.9688C5.97656 10.5625 6.1875 10.1875 6.46875 9.84375L8.8125 6.98438C9.15625 6.54688 9.58594 6.21094 10.1016 5.97656C10.6172 5.74219 11.1562 5.625 11.7188 5.625H33.2812C33.8438 5.625 34.3828 5.74219 34.8984 5.97656C35.4141 6.21094 35.8438 6.54688 36.1875 6.98438L38.5313 9.84375C38.8125 10.1875 39.0234 10.5625 39.1641 10.9688C39.3047 11.375 39.375 11.7969 39.375 12.2344V21.4219C38.7812 21.2031 38.1719 21.0313 37.5469 20.9063C36.9219 20.7813 36.2812 20.7188 35.625 20.7188V15H30V22.1719C28.9062 22.7969 27.9531 23.5703 27.1406 24.4922C26.3281 25.4141 25.6875 26.4531 25.2188 27.6094L22.5 26.25L15 30V15H9.375V35.625H25.0312C25.2812 36.3438 25.5938 37.0156 25.9688 37.6406C26.3438 38.2656 26.7812 38.8438 27.2812 39.375ZM33.75 39.375V33.75H28.125V30H33.75V24.375H37.5V30H43.125V33.75H37.5V39.375H33.75Z" fill="#022B61"/>
</g>
</svg>
