<svg width="20" height="20" viewBox="0 0 20 20" fill="none" xmlns="http://www.w3.org/2000/svg">
<path d="M13.5673 9.81829C13.6847 9.70093 13.7506 9.54176 13.7506 9.37579C13.7506 9.20982 13.6847 9.05065 13.5673 8.93329C13.45 8.81593 13.2908 8.75 13.1248 8.75C12.9588 8.75 12.7997 8.81593 12.6823 8.93329L9.37481 12.242L7.94231 10.8083C7.82496 10.6909 7.66578 10.625 7.49981 10.625C7.33384 10.625 7.17467 10.6909 7.05731 10.8083C6.93995 10.9256 6.87402 11.0848 6.87402 11.2508C6.87402 11.4168 6.93995 11.5759 7.05731 11.6933L8.93231 13.5683C8.99037 13.6265 9.05934 13.6727 9.13527 13.7042C9.2112 13.7357 9.2926 13.7519 9.37481 13.7519C9.45702 13.7519 9.53842 13.7357 9.61436 13.7042C9.69029 13.6727 9.75926 13.6265 9.81731 13.5683L13.5673 9.81829Z" fill="white"/>
<path d="M17.5 17.5V5.625L11.875 0H5C4.33696 0 3.70107 0.263392 3.23223 0.732233C2.76339 1.20107 2.5 1.83696 2.5 2.5V17.5C2.5 18.163 2.76339 18.7989 3.23223 19.2678C3.70107 19.7366 4.33696 20 5 20H15C15.663 20 16.2989 19.7366 16.7678 19.2678C17.2366 18.7989 17.5 18.163 17.5 17.5ZM11.875 3.75C11.875 4.24728 12.0725 4.72419 12.4242 5.07583C12.7758 5.42746 13.2527 5.625 13.75 5.625H16.25V17.5C16.25 17.8315 16.1183 18.1495 15.8839 18.3839C15.6495 18.6183 15.3315 18.75 15 18.75H5C4.66848 18.75 4.35054 18.6183 4.11612 18.3839C3.8817 18.1495 3.75 17.8315 3.75 17.5V2.5C3.75 2.16848 3.8817 1.85054 4.11612 1.61612C4.35054 1.3817 4.66848 1.25 5 1.25H11.875V3.75Z" fill="white"/>
</svg>
